<svg width="108" height="25" viewBox="0 0 108 25" fill="none" xmlns="http://www.w3.org/2000/svg">
<g clip-path="url(#clip0_2_318)">
<path d="M17.8571 4H2.14286C1.57454 4 1.02949 4.22577 0.627628 4.62763C0.225765 5.02949 0 5.57454 0 6.14286V21.8571C0 22.4255 0.225765 22.9705 0.627628 23.3724C1.02949 23.7742 1.57454 24 2.14286 24H8.27009V17.2004H5.45759V14H8.27009V11.5607C8.27009 8.78616 9.92188 7.25357 12.4518 7.25357C13.6634 7.25357 14.9304 7.46964 14.9304 7.46964V10.1929H13.5344C12.1589 10.1929 11.7299 11.0464 11.7299 11.9219V14H14.8004L14.3094 17.2004H11.7299V24H17.8571C18.4255 24 18.9705 23.7742 19.3724 23.3724C19.7742 22.9705 20 22.4255 20 21.8571V6.14286C20 5.57454 19.7742 5.02949 19.3724 4.62763C18.9705 4.22577 18.4255 4 17.8571 4Z" fill="#100A30"/>
</g>
<g clip-path="url(#clip1_2_318)">
<path d="M54.0022 8.87225C51.1645 8.87225 48.8756 11.1617 48.8756 14C48.8756 16.8383 51.1645 19.1277 54.0022 19.1277C56.8399 19.1277 59.1288 16.8383 59.1288 14C59.1288 11.1617 56.8399 8.87225 54.0022 8.87225ZM54.0022 17.3337C52.1684 17.3337 50.6693 15.8387 50.6693 14C50.6693 12.1613 52.164 10.6663 54.0022 10.6663C55.8405 10.6663 57.3352 12.1613 57.3352 14C57.3352 15.8387 55.836 17.3337 54.0022 17.3337ZM60.5343 8.6625C60.5343 9.32746 59.9989 9.85853 59.3385 9.85853C58.6737 9.85853 58.1428 9.32299 58.1428 8.6625C58.1428 8.00201 58.6782 7.46647 59.3385 7.46647C59.9989 7.46647 60.5343 8.00201 60.5343 8.6625ZM63.9297 9.87638C63.8539 8.27424 63.488 6.85507 62.3146 5.68582C61.1456 4.51657 59.7267 4.15062 58.1249 4.07029C56.4741 3.97657 51.5259 3.97657 49.8751 4.07029C48.2778 4.14616 46.8589 4.5121 45.6854 5.68136C44.512 6.85061 44.1506 8.26978 44.0703 9.87192C43.9766 11.5231 43.9766 16.4724 44.0703 18.1236C44.1461 19.7258 44.512 21.1449 45.6854 22.3142C46.8589 23.4834 48.2733 23.8494 49.8751 23.9297C51.5259 24.0234 56.4741 24.0234 58.1249 23.9297C59.7267 23.8538 61.1456 23.4879 62.3146 22.3142C63.4835 21.1449 63.8494 19.7258 63.9297 18.1236C64.0234 16.4724 64.0234 11.5276 63.9297 9.87638ZM61.797 19.8953C61.449 20.7701 60.7752 21.4439 59.8963 21.7965C58.58 22.3186 55.4568 22.1981 54.0022 22.1981C52.5477 22.1981 49.42 22.3142 48.1082 21.7965C47.2337 21.4484 46.56 20.7745 46.2075 19.8953C45.6854 18.5788 45.8059 15.4549 45.8059 14C45.8059 12.5451 45.6899 9.41671 46.2075 8.10465C46.5555 7.22995 47.2292 6.55606 48.1082 6.2035C49.4244 5.68136 52.5477 5.80185 54.0022 5.80185C55.4568 5.80185 58.5845 5.68582 59.8963 6.2035C60.7708 6.5516 61.4445 7.22548 61.797 8.10465C62.319 9.42118 62.1985 12.5451 62.1985 14C62.1985 15.4549 62.319 18.5833 61.797 19.8953Z" fill="#100A30"/>
</g>
<g clip-path="url(#clip2_2_318)">
<path d="M106.571 4H89.4241C88.6384 4 88 4.64732 88 5.44196V22.558C88 23.3527 88.6384 24 89.4241 24H106.571C107.357 24 108 23.3527 108 22.558V5.44196C108 4.64732 107.357 4 106.571 4ZM94.0446 21.1429H91.0804V11.5982H94.0491V21.1429H94.0446ZM92.5625 10.2946C91.6116 10.2946 90.8438 9.52232 90.8438 8.57589C90.8438 7.62946 91.6116 6.85714 92.5625 6.85714C93.5089 6.85714 94.2812 7.62946 94.2812 8.57589C94.2812 9.52679 93.5134 10.2946 92.5625 10.2946ZM105.156 21.1429H102.192V16.5C102.192 15.3929 102.17 13.9688 100.652 13.9688C99.1071 13.9688 98.8705 15.1741 98.8705 16.4196V21.1429H95.9062V11.5982H98.75V12.9018H98.7902C99.1875 12.1518 100.156 11.3616 101.598 11.3616C104.598 11.3616 105.156 13.3393 105.156 15.9107V21.1429Z" fill="#100A30"/>
</g>
<defs>
<clipPath id="clip0_2_318">
<rect width="20" height="20" fill="white" transform="translate(0 4)"/>
</clipPath>
<clipPath id="clip1_2_318">
<rect width="20" height="20" fill="white" transform="translate(44 4)"/>
</clipPath>
<clipPath id="clip2_2_318">
<rect width="20" height="20" fill="white" transform="translate(88 4)"/>
</clipPath>
</defs>
</svg>
